<svg xmlns="http://www.w3.org/2000/svg" viewBox="0 0 512 512" role="img" aria-labelledby="title desc">
  <title id="title">Ikon Sistem Kepesantrenan Tebuireng</title>
  <desc id="desc">Kubah pesantren dan buku data terbuka dalam bidang hijau.</desc>
  <rect width="512" height="512" rx="116" fill="#0F6E56"/>
  <circle cx="256" cy="91" r="13" fill="#E6B85C"/>
  <path d="M256 103v23" stroke="#E6B85C" stroke-width="12" stroke-linecap="round"/>
  <path d="M128 292v-48c0-69 49-116 128-151 79 35 128 82 128 151v48H128Z" fill="#DDEFE8"/>
  <path d="M160 276v-38M352 276v-38" stroke="#0F6E56" stroke-width="14" stroke-linecap="round" opacity=".42"/>
  <path d="M256 320c-45-35-98-48-166-34v112c61-11 114 3 166 45 52-42 105-56 166-45V286c-68-14-121-1-166 34Z" fill="#FFFFFF"/>
  <path d="M256 320v123M113 312c52-6 96 8 122 29M399 312c-52-6-96 8-122 29" fill="none" stroke="#0F6E56" stroke-width="12" stroke-linecap="round" opacity=".78"/>
  <path d="m322 365 18 18 39-43" fill="none" stroke="#E6B85C" stroke-width="15" stroke-linecap="round" stroke-linejoin="round"/>
</svg>
